<?xml version="1.0" standalone="no"?>
<!DOCTYPE svg PUBLIC "-//W3C//DTD SVG 20010904//EN"
 "http://www.w3.org/TR/2001/REC-SVG-20010904/DTD/svg10.dtd">
<svg version="1.0" xmlns="http://www.w3.org/2000/svg"
 width="300.000000pt" height="300.000000pt" viewBox="0 0 300.000000 300.000000"
 preserveAspectRatio="xMidYMid meet">
<metadata>
Created by potrace 1.10, written by Peter Selinger 2001-2011
</metadata>
<g transform="translate(0.000000,300.000000) scale(0.100000,-0.100000)"
fill="#000000" stroke="none">
<path d="M1144 1940 c-283 -44 -497 -280 -511 -565 -24 -459 453 -772 865
-569 78 38 195 139 234 201 20 34 21 36 3 49 -9 7 -134 77 -276 156 -142 79
-255 146 -251 149 4 3 115 54 247 114 132 59 257 116 278 127 l37 19 -39 58
c-45 66 -130 147 -194 184 -106 62 -276 96 -393 77z m198 -24 c92 -18 166 -51
246 -110 59 -43 156 -159 150 -178 -2 -5 -128 -65 -281 -135 -153 -70 -276
-131 -274 -137 3 -9 507 -296 542 -309 15 -6 -42 -82 -101 -136 -64 -59 -200
-128 -279 -142 -84 -16 -227 -6 -299 20 -149 53 -271 160 -335 294 -46 97 -61
161 -61 265 0 157 55 287 170 403 145 146 325 203 522 165z"/>
<path d="M1202 1738 c-29 -29 -8 -80 33 -80 30 0 45 15 45 48 0 26 -18 44 -45
44 -12 0 -26 -5 -33 -12z"/>
</g>
</svg>
